<svg xmlns="http://www.w3.org/2000/svg" version="1.1" xmlns:xlink="http://www.w3.org/1999/xlink" xmlns:svgjs="http://svgjs.dev/svgjs" width="1000" height="1000" viewBox="0 0 1000 1000"><rect width="1000" height="1000" fill="#000000"></rect><g transform="matrix(0.7,0,0,0.7,150.00008093749994,106.25)"><svg viewBox="0 0 320 360" data-background-color="#0718c4" preserveAspectRatio="xMidYMid meet" height="1125" width="1000" xmlns="http://www.w3.org/2000/svg" xmlns:xlink="http://www.w3.org/1999/xlink"><g id="tight-bounds" transform="matrix(1,0,0,1,-0.0000369999999634274,0)"><svg viewBox="0 0 320 360" height="360" width="320"><g><svg></svg></g><g><svg viewBox="0 0 320 360" height="360" width="320"><g><path transform="translate(-29.57346,-9.38389) scale(3.79147,3.79147)" d="M50 13.6c19.1 0 34.8 14.8 36.3 33.5h5.9c-0.3-4.7-1.4-9.2-3.2-13.5-2.1-5-5.2-9.6-9.1-13.4-3.9-3.9-8.4-6.9-13.4-9.1-5.3-2.2-10.8-3.4-16.5-3.4-5.7 0-11.2 1.1-16.5 3.3-5 2.1-9.6 5.2-13.4 9.1-3.9 3.9-6.9 8.4-9.1 13.4-1.8 4.3-2.9 8.9-3.2 13.5h5.9c1.5-18.6 17.2-33.4 36.3-33.4zM50 86.4c-19.1 0-34.8-14.8-36.3-33.5h-5.9c0.3 4.7 1.4 9.2 3.2 13.5 2.1 5 5.2 9.6 9.1 13.4 3.9 3.9 8.4 6.9 13.4 9.1 5.2 2.2 10.7 3.3 16.5 3.3 5.8 0 11.2-1.1 16.5-3.3 5-2.1 9.6-5.2 13.4-9.1 3.9-3.9 6.9-8.4 9.1-13.4 1.8-4.3 2.9-8.9 3.2-13.5h-5.9c-1.5 18.7-17.2 33.5-36.3 33.5z" fill="#ffffff" fill-rule="nonzero" stroke="none" stroke-width="1" stroke-linecap="butt" stroke-linejoin="miter" stroke-miterlimit="10" stroke-dasharray="" stroke-dashoffset="0" font-family="none" font-weight="none" font-size="none" text-anchor="none" style="mix-blend-mode: normal" data-fill-palette-color="tertiary"></path></g><g transform="matrix(1,0,0,1,123.16001022668482,90)"><svg viewBox="0 0 73.67997954663035 180" height="180" width="73.67997954663035"><g><svg viewBox="0 0 127.13467048710604 310.5896720994091" height="180" width="73.67997954663035"><g transform="matrix(1,0,0,1,0,130.58967209940906)"><svg viewBox="0 0 127.13467048710604 180" height="180" width="127.13467048710604"><g id="textblocktransform"><svg viewBox="0 0 127.13467048710604 180" height="180" width="127.13467048710604" id="textblock"><g><svg viewBox="0 0 127.13467048710604 180" height="180" width="127.13467048710604"><g transform="matrix(1,0,0,1,0,0)"><svg width="127.13467048710604" viewBox="4.65 -34.9 24.65 34.9" height="180" data-palette-color="#8dbdff"><path d="M8.85-15L8.85 0 4.65 0 4.65-34.9 18.55-34.9Q23.15-34.9 25.73-32.35 28.3-29.8 28.3-25L28.3-25Q28.3-21.15 26.53-18.68 24.75-16.2 21.3-15.4L21.3-15.4 29.3 0 24.55 0 17-15 8.85-15ZM8.85-18.6L18.55-18.6Q21.05-18.6 22.43-19.9 23.8-21.2 23.8-23.6L23.8-23.6 23.8-26.2Q23.8-28.6 22.43-29.9 21.05-31.2 18.55-31.2L18.55-31.2 8.85-31.2 8.85-18.6Z" opacity="1" transform="matrix(1,0,0,1,0,0)" fill="#ffffff" class="wordmark-text-0" data-fill-palette-color="primary" id="text-0"></path></svg></g></svg></g></svg></g></svg></g><g transform="matrix(1,0,0,1,40.766179193848494,0)"><svg viewBox="0 0 45.60231209940905 45.60231209940905" height="45.60231209940905" width="45.60231209940905"><g><svg></svg></g><g id="icon-0"><svg viewBox="0 0 45.60231209940905 45.60231209940905" height="45.60231209940905" width="45.60231209940905"><g><path d="M0 22.801c0-12.593 10.208-22.801 22.801-22.801 12.593 0 22.801 10.208 22.801 22.801 0 12.593-10.208 22.801-22.801 22.801-12.593 0-22.801-10.208-22.801-22.801zM22.801 29.37c3.628 0 6.569-2.941 6.569-6.569 0-3.628-2.941-6.569-6.569-6.568-3.628 0-6.569 2.941-6.568 6.568 0 3.628 2.941 6.569 6.568 6.569z" data-fill-palette-color="tertiary" fill="#ffffff" stroke="transparent"></path></g><g transform="matrix(1,0,0,1,34.8173254334714,32.968637773778866)"><svg viewBox="0 0 -24.03233876753376 -20.334963448148688" height="-20.334963448148688" width="-24.03233876753376"><g><svg xmlns="http://www.w3.org/2000/svg" xmlns:xlink="http://www.w3.org/1999/xlink" version="1.1" x="0" y="0" viewBox="0 13.422 100 84.615" enable-background="new 0 0 100 100" xml:space="preserve" height="-20.334963448148688" width="-24.03233876753376" class="icon-cg-0" data-fill-palette-color="accent" id="cg-0"><g fill="#8dbdff" data-fill-palette-color="accent"><path d="M0 13.422v84.615h100V13.422H0zM92.308 90.346H7.692V28.807h84.615V90.346z" fill="#ffffff" data-fill-palette-color="accent"></path><rect x="42.002" y="66.065" width="26.488" height="7.775" fill="#ffffff" data-fill-palette-color="accent"></rect><polygon points="15.521,66.064 41.988,55.549 41.988,55.527 42.002,55.533 42.002,47.181 41.988,47.187 41.988,47.165    15.521,36.65 15.515,45.014 31.487,51.357 15.515,57.701  " fill="#ffffff" data-fill-palette-color="accent"></polygon></g></svg></g></svg></g></svg></g></svg></g><g></g></svg></g></svg></g></svg></g><defs></defs></svg><rect width="320" height="360" fill="none" stroke="none" visibility="hidden"></rect></g></svg></g></svg>